<svg width="31" height="23" viewBox="0 0 31 23" fill="none" xmlns="http://www.w3.org/2000/svg">
<path d="M30.9248 8.34265C30.6575 5.72048 29.7792 3.12177 28.2614 0.935842C27.8747 0.377634 27.4547 -0.0351586 26.7244 0.00236795C26.0514 0.0398945 25.3354 0.293199 24.7053 0.513668C23.5359 0.92646 22.4238 1.48467 21.3928 2.15546C19.1255 3.63307 17.2258 5.57038 15.4979 7.62496C13.9848 5.83306 12.3476 4.14437 10.4479 2.74181C9.42643 1.99128 8.3286 1.34394 7.1544 0.851407C6.58162 0.612175 5.99929 0.401088 5.40265 0.236909C4.74395 0.0586578 3.96115 -0.189956 3.34541 0.236909C2.84423 0.58403 2.51488 1.24544 2.20939 1.75674C1.86095 2.34309 1.56024 2.94821 1.29295 3.57678C0.77267 4.79639 0.400363 6.07698 0.19989 7.38572C-0.0101297 8.7273 -0.0626346 10.0876 0.0805605 11.4386C0.19989 12.5503 0.252395 14.042 1.37886 14.6424C2.01847 14.9849 2.82991 15.1115 3.53156 15.2757C4.25231 15.4446 4.97783 15.5759 5.71767 15.6603C6.09475 15.7026 6.47661 15.7213 6.84892 15.7213C6.07089 16.3077 5.29764 16.9081 4.55302 17.532C3.10198 18.761 4.2189 20.6138 5.25468 21.7256C5.77495 22.2838 6.45752 22.8936 7.24986 22.9827C8.14244 23.0812 8.71045 22.4714 9.25937 21.8757C10.319 20.7124 11.3834 19.5537 12.4431 18.3904C13.4645 17.274 14.4812 16.1576 15.5027 15.0411C17.4597 17.1849 19.4167 19.3239 21.3689 21.4676C21.851 21.9929 22.3283 22.6825 23.0347 22.917C23.8748 23.1985 24.6481 22.7153 25.259 22.1947C26.3139 21.2893 27.8461 19.3567 26.8437 17.9635C26.5717 17.5836 26.1612 17.3162 25.7936 17.0347C25.3593 16.7017 24.9297 16.3687 24.4953 16.0356C24.3569 15.9324 24.2233 15.8245 24.0848 15.7213C25.6457 15.7354 27.2399 15.3695 28.7387 14.9661C29.2876 14.816 29.8317 14.6377 30.204 14.1921C30.6098 13.6996 30.6957 13.0194 30.7911 12.4096C31.0059 11.068 31.0632 9.70768 30.9248 8.35672V8.34265Z" fill="#B5002D"/>
</svg>
