<svg width="10" height="12" viewBox="0 0 10 12" fill="none" xmlns="http://www.w3.org/2000/svg">
<path d="M0.267857 4.25H9.73214C9.87946 4.25 10 4.36953 10 4.51562V10.2708C10 10.8574 9.52009 11.3333 8.92857 11.3333H1.07143C0.479911 11.3333 0 10.8574 0 10.2708V4.51562C0 4.36953 0.120536 4.25 0.267857 4.25ZM10 3.27604V2.47917C10 1.89258 9.52009 1.41667 8.92857 1.41667H7.85714V0.265625C7.85714 0.119531 7.73661 0 7.58929 0H6.69643C6.54911 0 6.42857 0.119531 6.42857 0.265625V1.41667H3.57143V0.265625C3.57143 0.119531 3.45089 0 3.30357 0H2.41071C2.26339 0 2.14286 0.119531 2.14286 0.265625V1.41667H1.07143C0.479911 1.41667 0 1.89258 0 2.47917V3.27604C0 3.42214 0.120536 3.54167 0.267857 3.54167H9.73214C9.87946 3.54167 10 3.42214 10 3.27604Z" fill="#B9B9B9"/>
</svg>
