<svg width="8" height="9" viewBox="0 0 8 9" fill="none" xmlns="http://www.w3.org/2000/svg">
<path d="M5.60608 1.77342H0.214285C0.0959463 1.77342 0 1.87102 0 1.99139V3.00859C0 3.12896 0.0959463 3.22656 0.214285 3.22656H5.60608V4.06318C5.60608 4.45157 6.0677 4.64607 6.3377 4.37144L7.87447 2.80825C8.04184 2.638 8.04184 2.36198 7.87447 2.19175L6.3377 0.628556C6.06772 0.353932 5.60608 0.548434 5.60608 0.93682V1.77342Z" fill="#878787"/>
<path d="M2.39392 7.22658L7.78571 7.22658C7.90405 7.22658 8 7.12898 8 7.00861L8 5.99141C8 5.87104 7.90405 5.77344 7.78571 5.77344L2.39392 5.77344L2.39392 4.93682C2.39392 4.54843 1.9323 4.35393 1.6623 4.62855L0.125531 6.19174C-0.0418432 6.362 -0.0418433 6.63802 0.125531 6.80825L1.6623 8.37144C1.93228 8.64607 2.39392 8.45157 2.39392 8.06318L2.39392 7.22658Z" fill="#878787"/>
</svg>
