<svg width="34" height="34" viewBox="0 0 34 34" fill="none" xmlns="http://www.w3.org/2000/svg">
<path d="M24.3684 29.9133C24.1559 29.9142 23.9463 29.8629 23.7571 29.7638L16.9801 26.1343L10.203 29.7638C9.98291 29.8822 9.73479 29.935 9.48683 29.9163C9.23887 29.8976 9.00101 29.8081 8.80029 29.658C8.59957 29.5079 8.44404 29.3032 8.35139 29.0672C8.25873 28.8312 8.23267 28.5733 8.27616 28.3229L9.605 20.6697L4.13018 15.2323C3.95936 15.0579 3.83819 14.8393 3.77967 14.5998C3.72114 14.3603 3.72747 14.109 3.79797 13.8729C3.87499 13.6314 4.01666 13.4167 4.20692 13.2533C4.39717 13.0899 4.62839 12.9843 4.87433 12.9486L12.4487 11.8203L15.7841 4.84683C15.8929 4.617 16.0628 4.42317 16.2743 4.28755C16.4858 4.15193 16.7304 4.08 16.9801 4.08C17.2297 4.08 17.4743 4.15193 17.6858 4.28755C17.8973 4.42317 18.0672 4.617 18.176 4.84683L21.5513 11.8067L29.1257 12.935C29.3716 12.9707 29.6028 13.0763 29.7931 13.2397C29.9833 13.4031 30.125 13.6178 30.202 13.8594C30.2725 14.0954 30.2788 14.3467 30.2203 14.5862C30.1618 14.8257 30.0406 15.0443 29.8698 15.2187L24.395 20.6561L25.7238 28.3093C25.7713 28.5641 25.7464 28.8276 25.6522 29.0684C25.5581 29.3093 25.3985 29.5176 25.1923 29.6686C24.9517 29.8411 24.6619 29.9272 24.3684 29.9133Z" fill="#FFD600"/>
</svg>
