<svg width="31" height="30" viewBox="0 0 31 30" fill="none" xmlns="http://www.w3.org/2000/svg">
<ellipse cx="15.3776" cy="15" rx="11.8776" ry="12" fill="#FFE812"/>
<path d="M15.615 9.71973C12.3351 9.71973 9.67627 11.8313 9.67627 14.4361C9.67627 16.1202 10.7878 17.5978 12.46 18.4322C12.369 18.7482 11.8754 20.4651 11.8557 20.6C11.8557 20.6 11.8439 20.7013 11.9091 20.74C11.9742 20.7786 12.0509 20.7486 12.0509 20.7486C12.2377 20.7223 14.2175 19.3216 14.5602 19.0783C14.9026 19.1272 15.2551 19.1525 15.615 19.1525C18.895 19.1525 21.5538 17.041 21.5538 14.4361C21.5538 11.8313 18.895 9.71973 15.615 9.71973Z" fill="#1A1A1A"/>
</svg>
