<svg width="24" height="24" viewBox="0 0 24 24" fill="none" xmlns="http://www.w3.org/2000/svg">
<circle cx="12" cy="12" r="12" fill="#FFE812"/>
<path d="M12.24 6.72C8.92626 6.72 6.23999 8.83162 6.23999 11.4364C6.23999 13.1204 7.36303 14.5981 9.05237 15.4325C8.96047 15.7485 8.46178 17.4654 8.44193 17.6003C8.44193 17.6003 8.42999 17.7016 8.49582 17.7403C8.56164 17.7789 8.63907 17.7489 8.63907 17.7489C8.82784 17.7226 10.8281 16.3218 11.1743 16.0786C11.5202 16.1274 11.8763 16.1528 12.24 16.1528C15.5537 16.1528 18.24 14.0412 18.24 11.4364C18.24 8.83162 15.5537 6.72 12.24 6.72Z" fill="#1A1A1A"/>
</svg>
