<svg width="187" height="67" viewBox="0 0 187 67" fill="none" xmlns="http://www.w3.org/2000/svg">
<path d="M40.8047 28.5904C40.6567 27.3042 40.5881 26.0137 40.4209 24.7296C40.1293 22.498 39.7134 20.3157 39.1238 18.142C38.8386 17.0852 38.5256 16.0369 38.204 14.9908C37.9124 14.0455 37.2928 13.1901 36.4309 12.6842C35.9871 12.4012 35.509 12.249 34.9966 12.2255C34.4842 12.1097 33.9696 12.1333 33.4572 12.2941C32.5224 12.5963 31.622 13.1751 31.1503 14.0669C30.6722 14.9694 30.4535 16.0369 30.7622 17.0402C31.3004 18.7916 31.8128 20.5558 32.218 22.3415C31.7442 22.4251 31.2725 22.513 30.803 22.6138C29.7717 22.8324 28.7426 23.0425 27.7006 23.199C27.3361 23.2419 26.9738 23.2826 26.6093 23.3212C26.0776 23.3019 25.5823 23.4112 25.1214 23.6535C24.6433 23.8099 24.2295 24.0758 23.88 24.4509C23.5027 24.8003 23.2368 25.2141 23.0824 25.6921C22.8402 26.153 22.7308 26.6482 22.7501 27.1798C22.7951 28.1788 23.1232 29.212 23.88 29.9087C24.5897 30.5604 25.6081 31.1392 26.6093 31.0385C28.4188 30.8562 30.2262 30.6161 32.0057 30.2389C32.4281 30.1488 32.8483 30.0631 33.2707 29.9795C33.4208 31.0728 33.5837 32.1639 33.7659 33.2529C33.8067 33.5015 33.8496 33.7502 33.8924 33.9989C34.0125 34.5005 34.2419 34.9378 34.5828 35.3108C34.8551 35.731 35.2153 36.0611 35.6655 36.3055C36.1093 36.5885 36.5874 36.7407 37.0999 36.7642C37.6123 36.88 38.1268 36.8564 38.6392 36.6956C39.574 36.3934 40.4745 35.8146 40.9462 34.9228C41.0748 34.6163 41.2056 34.3076 41.3342 34.001C41.5186 33.3172 41.5186 32.6334 41.3342 31.9495C41.137 30.8348 40.9633 29.7137 40.8068 28.5925L40.8047 28.5904Z" fill="white"/>
<path d="M82.4067 16.2942C82.6661 16.4957 82.9277 16.6972 83.1871 16.8966C83.7895 17.246 84.4392 17.4218 85.1338 17.4239C86.4481 17.5096 87.7666 17.5547 89.083 17.5118C89.7927 17.4882 90.5024 17.4496 91.2099 17.4282C91.1906 18.0756 91.1777 18.723 91.1713 19.3725C91.167 19.947 91.1649 20.5215 91.1692 21.0982C91.1777 22.0928 91.5937 23.1218 92.299 23.8271C92.6485 24.2044 93.0623 24.4702 93.5404 24.6245C94.0014 24.8668 94.4966 24.9761 95.0262 24.9568C96.0253 24.9118 97.0587 24.5838 97.7555 23.8271C98.4459 23.0768 98.894 22.14 98.8854 21.0982C98.8725 19.6533 98.8897 18.2085 98.9454 16.7658C98.9883 15.6811 99.1126 14.6071 99.1769 13.5267C99.267 12.0197 99.2413 10.5084 99.1426 9.00136C99.0312 7.27998 98.8275 5.56718 98.6002 3.85866C98.6195 3.32703 98.5102 2.83183 98.2679 2.37309C98.1114 1.89504 97.8455 1.48131 97.4703 1.13189C97.1209 0.754602 96.7071 0.488785 96.229 0.33444C95.768 0.0922035 95.2728 -0.0171245 94.741 0.00216868C93.7419 0.0471861 92.7085 0.37517 92.0117 1.13189C91.8102 1.39128 91.6087 1.65281 91.4093 1.91219C91.0598 2.51457 90.884 3.1641 90.8819 3.85866C91.1413 5.7987 91.3685 7.75159 91.465 9.70878C91.1992 9.71307 90.9355 9.7195 90.6696 9.73021C89.6727 9.7688 88.6778 9.82454 87.6787 9.81596C86.8276 9.80739 85.9786 9.76666 85.1295 9.71092C84.5978 9.69163 84.1026 9.80096 83.6416 10.0432C83.1635 10.1997 82.7497 10.4655 82.4002 10.8406C82.0229 11.1901 81.757 11.6038 81.6027 12.0818C81.3604 12.5427 81.2511 13.0379 81.2703 13.5674C81.3154 14.5664 81.6434 15.5996 82.4002 16.2963L82.4067 16.2942Z" fill="white"/>
<path d="M185.38 21.3318C185.372 20.2793 185.34 19.2267 185.299 18.1742C185.258 17.1602 184.896 16.172 184.169 15.4453C183.82 15.068 183.406 14.8022 182.928 14.6478C182.467 14.4056 181.971 14.2963 181.442 14.3156C180.443 14.3606 179.409 14.6886 178.713 15.4453C178.035 16.1827 177.542 17.1431 177.583 18.1742C177.696 21.0489 177.733 23.9386 177.396 26.8004C177.302 27.3856 177.186 27.9665 177.085 28.5518C176.927 29.465 176.811 30.3868 176.693 31.3043C176.551 32.4126 176.434 33.523 176.328 34.6356C176.305 34.8799 176.283 35.1222 176.262 35.3666C176.243 35.8982 176.352 36.3934 176.594 36.8543C176.751 37.3323 177.017 37.746 177.392 38.0955C177.741 38.4728 178.155 38.7386 178.633 38.8929C179.094 39.1352 179.589 39.2445 180.119 39.2252C181.118 39.1802 182.152 38.8522 182.848 38.0955C183.05 37.8361 183.251 37.5746 183.451 37.3152C183.8 36.7128 183.976 36.0633 183.978 35.3687C184.088 34.0846 184.22 32.8027 184.383 31.5229C184.615 29.9473 184.928 28.3889 185.117 26.8047C185.333 24.989 185.393 23.1604 185.38 21.334V21.3318Z" fill="white"/>
<path d="M18.8545 26.3181C18.5522 25.6149 18.1727 24.9504 17.7182 24.3351C17.0728 23.4648 16.4082 22.6181 15.5763 21.9171C14.7659 21.2354 13.9083 20.5751 12.9542 20.1057C12.5126 19.887 12.0559 19.6876 11.5949 19.5161C11.3334 19.4197 11.0525 19.3639 10.7717 19.3275C10.5144 19.2739 10.2507 19.246 9.98052 19.246C9.51313 19.2096 9.04574 19.2053 8.58049 19.2568C7.80651 19.3425 7.01752 19.4282 6.2757 19.6791C5.59391 19.9106 4.8864 20.1743 4.29251 20.5923C3.72221 20.9931 3.13904 21.4283 2.67165 21.9535C2.20426 22.4787 1.74545 23.0511 1.39812 23.6685C1.15585 24.1015 0.977902 24.5731 0.791374 25.0318C0.718479 25.2141 0.652015 25.3963 0.604847 25.5871C0.420464 26.3481 0.341136 27.1648 0.242513 27.9344C0.180337 28.4253 0.133169 28.9183 0.0988653 29.4135C-0.0576461 31.5915 -0.076942 33.7802 0.4076 35.9239C0.508368 36.3655 0.641295 36.7964 0.81067 37.2144C1.08081 37.8811 1.34667 38.5606 1.73044 39.1737C2.09921 39.7654 2.53873 40.3249 2.99754 40.8501C3.26125 41.1524 3.54855 41.431 3.85728 41.684C4.39542 42.1234 4.95072 42.5715 5.55532 42.923C6.16636 43.2789 6.83957 43.5533 7.49992 43.7977C7.71646 43.877 7.93944 43.9434 8.1667 43.9906C8.72628 44.1064 9.30731 44.1943 9.87761 44.2114C10.613 44.235 11.3848 44.1257 12.0881 43.9091C13.8547 43.3625 15.3233 42.2778 16.6226 40.9916C16.8456 40.7708 17.0557 40.5393 17.2486 40.2927C17.6367 39.804 18.0376 39.3131 18.3657 38.7793C18.8888 37.9325 19.2854 36.9829 19.577 36.0354C19.8943 35.0043 20.0337 33.8981 20.1002 32.8263C20.173 31.6623 20.0423 30.5068 19.8579 29.3578C19.6864 28.286 19.2833 27.3127 18.8566 26.3202L18.8545 26.3181ZM10.4865 36.1704C10.3214 36.2819 10.152 36.3827 9.97837 36.4791C9.97409 36.4791 9.9698 36.4813 9.96766 36.4834C9.89476 36.4641 9.82186 36.4405 9.74897 36.4191C9.51956 36.2991 9.29659 36.1683 9.08004 36.0247C8.87636 35.8425 8.6834 35.6474 8.50117 35.4437C8.35752 35.2251 8.22674 34.9978 8.10667 34.7663C7.96731 34.359 7.85797 33.9453 7.7765 33.523C7.69931 32.6827 7.69502 31.838 7.72718 30.9934C7.76149 30.0738 7.81938 29.152 7.92443 28.2367C7.96302 28.0051 8.01019 27.7736 8.07237 27.5485C8.11525 27.4735 8.15813 27.4006 8.20315 27.3299C8.27819 27.2484 8.35537 27.1712 8.4347 27.0962C8.44113 27.0919 8.44542 27.0898 8.45185 27.0855C8.61908 27.034 8.78846 26.9869 8.95784 26.9483C9.09505 26.9419 9.23227 26.9397 9.36948 26.9397C9.6482 27.0919 9.91834 27.2548 10.1778 27.4349C10.5508 27.7565 10.896 28.1037 11.2176 28.4746C11.507 28.8926 11.7643 29.3299 11.9873 29.7865C12.1438 30.2217 12.266 30.6676 12.3561 31.1221C12.4097 31.7694 12.4097 32.4211 12.3561 33.0685C12.2746 33.4865 12.1631 33.896 12.0237 34.2969C11.878 34.5863 11.715 34.8649 11.5349 35.1329C11.2133 35.5037 10.8574 35.851 10.4844 36.1726L10.4865 36.1704Z" fill="white"/>
<path d="M79.6388 25.4113C79.9797 25.0383 80.2091 24.601 80.3291 24.0993C80.5543 23.1111 80.5049 22.0028 79.9411 21.126C79.7395 20.8667 79.538 20.6051 79.3386 20.3457C78.8562 19.8677 78.2902 19.5376 77.6363 19.3532C76.6779 19.0274 75.7281 18.678 74.7869 18.3028C74.8534 18.1377 74.9177 17.9748 74.9799 17.8076C75.2672 17.0445 75.4837 16.2599 75.5973 15.4517C75.6895 14.7957 75.7989 14.1333 75.7967 13.4688C75.7946 12.7421 75.6874 12.0068 75.5502 11.2951C75.4237 10.6477 75.1728 9.99818 74.8255 9.44082C74.5854 9.05281 74.2831 8.64551 73.9315 8.33896C73.582 8.03456 73.2004 7.72801 72.7952 7.49864C71.8732 6.97558 70.8398 6.57471 69.815 6.30675C67.849 5.79226 65.78 5.6958 63.7561 5.63577C62.9199 5.61219 62.0066 5.96376 61.3355 6.49539C61.2519 6.4075 61.1661 6.32175 61.0761 6.24458C60.7266 5.94018 60.345 5.63363 59.9398 5.40426C59.0179 4.8812 57.9845 4.48033 56.9596 4.21237C54.9936 3.69788 52.9247 3.60142 50.9007 3.54139C49.9295 3.51353 48.8511 3.99157 48.1714 4.67112C47.7941 5.02054 47.5282 5.43427 47.3739 5.91231C47.1316 6.3732 47.0222 6.86839 47.0415 7.39788C47.0866 8.39684 47.4146 9.4301 48.1714 10.1268C48.939 10.8321 49.8437 11.2265 50.9007 11.2565C51.8827 11.2844 52.8625 11.323 53.8401 11.4259C54.3032 11.5052 54.762 11.6081 55.2123 11.7388C55.2123 11.7774 55.2101 11.816 55.208 11.8546C55.0751 12.5256 54.8693 13.1815 54.6227 13.8204C53.4564 16.4057 51.8612 18.7873 50.2811 21.1325C49.9981 21.5762 49.8459 22.0543 49.8223 22.5666C49.7065 23.0789 49.7301 23.5934 49.8909 24.1058C50.011 24.6074 50.2404 25.0447 50.5813 25.4177C50.8536 25.8379 51.2137 26.168 51.664 26.4124C52.5602 26.8861 53.645 27.1219 54.6377 26.8004L55.5596 26.4124C56.1385 26.0694 56.6016 25.6085 56.9446 25.0276C57.3992 24.3523 57.8515 23.6727 58.2932 22.9889C59.7383 23.5956 61.1919 24.1722 62.6755 24.6781C62.564 25.1862 62.5876 25.6942 62.7463 26.2023C62.8663 26.7039 63.0957 27.1412 63.4366 27.5142C63.7089 27.9344 64.0691 28.2645 64.5194 28.5089C65.4155 28.9827 66.5004 29.2185 67.4931 28.8969C67.7997 28.7683 68.1084 28.6375 68.415 28.5089C68.9939 28.1659 69.457 27.705 69.8 27.1241C70.2545 26.4488 70.7069 25.7693 71.1486 25.0854C72.6108 25.6985 74.0837 26.2838 75.5866 26.794C76.099 26.9547 76.6136 26.9783 77.126 26.8626C77.6406 26.839 78.1187 26.6868 78.5603 26.4038C79.0106 26.1616 79.3708 25.8293 79.6431 25.4091L79.6388 25.4113ZM62.1224 15.7132C62.4097 14.9501 62.6262 14.1655 62.7398 13.3573C62.7463 13.3059 62.7548 13.2544 62.7613 13.203C63.0764 13.2909 63.4045 13.3423 63.7518 13.353C64.7337 13.3809 65.7136 13.4195 66.6912 13.5224C67.1543 13.6017 67.6131 13.7046 68.0634 13.8354C68.0634 13.874 68.0612 13.9125 68.0591 13.9511C67.9262 14.6221 67.7203 15.2781 67.4738 15.9169C67.135 16.6693 66.7577 17.4068 66.3546 18.1292C65.9022 17.7154 65.3769 17.4239 64.7788 17.2567C63.8204 16.9309 62.8706 16.5814 61.9294 16.2063C61.9959 16.0412 62.0602 15.8783 62.1224 15.7111V15.7132Z" fill="white"/>
<path d="M101.728 58.8463C101.197 58.0232 100.405 57.2965 99.4214 57.0735C99.0783 57.0285 98.7374 56.9813 98.3944 56.9363C97.6976 56.9385 97.048 57.1142 96.4477 57.4637C96.3297 57.5215 96.2075 57.5751 96.0875 57.6287C95.1548 57.9739 94.1922 58.2204 93.2102 58.3855C90.9548 58.6341 88.6628 58.5248 86.4116 58.2568C86.2466 58.229 86.0815 58.199 85.9185 58.1604C85.8885 57.6802 85.8864 57.2 85.8821 56.7177C85.8756 55.8645 85.8714 55.0113 85.8649 54.156C85.8585 53.3028 85.8542 52.4496 85.8478 51.5943C85.8456 51.2084 85.8349 50.8182 85.8392 50.4302C85.8778 50.4217 85.9142 50.4131 85.9528 50.4067C87.3893 50.2866 88.8429 50.4067 90.2815 50.3659C92.2733 50.308 94.2608 50.0765 96.2247 49.7421C98.1671 49.412 99.6122 47.8621 99.8738 45.9306C100.028 44.7966 100.187 43.6605 100.307 42.5222C100.476 40.8865 100.558 39.2316 100.371 37.5938C100.223 36.2862 100.095 34.9099 99.3013 33.7995C98.7203 32.9849 98.1307 32.3675 97.2581 31.8445C96.8186 31.5808 96.3169 31.4007 95.8409 31.2185C95.2127 30.9784 94.5459 30.8327 93.892 30.6912C92.0761 30.2946 90.2344 30.0073 88.397 29.7372C86.8769 29.5121 85.3525 29.3021 83.8281 29.1134C83.2964 29.0941 82.8012 29.2035 82.3402 29.4457C81.8621 29.6022 81.4483 29.868 81.0988 30.2431C80.7215 30.5926 80.4556 31.0063 80.3013 31.4843C80.059 31.9452 79.9497 32.4404 79.9689 32.9721C80.014 33.971 80.342 35.0043 81.0988 35.701C81.3582 35.9025 81.6198 36.104 81.8792 36.3033C82.4817 36.6528 83.1313 36.8285 83.826 36.8307C84.1776 36.8736 84.5271 36.9207 84.8765 36.9679C87.3636 37.3044 89.8613 37.6667 92.3033 38.2391C92.4405 38.2712 92.5778 38.3034 92.7128 38.3377C92.8029 39.7268 92.7278 41.1181 92.5863 42.505C91.4693 42.6101 90.3502 42.6658 89.2267 42.6637C88.4784 42.6637 87.7302 42.6337 86.9819 42.6422C85.9314 42.6551 84.8723 42.7666 83.8431 42.9724C83.5473 43.0324 83.2557 43.1074 82.9727 43.2124C82.4045 43.4225 81.7935 43.6433 81.2811 43.9842C80.9209 44.2221 80.5671 44.4986 80.2412 44.7816C80.1169 44.8888 80.0054 45.0024 79.9003 45.1268C79.2143 45.9478 78.9034 46.4901 78.5325 47.4891C78.2044 48.3723 78.138 49.367 78.1251 50.3059C78.1144 51.0562 78.1315 51.8065 78.138 52.5568C78.1487 54.1388 78.153 55.723 78.1701 57.305C78.1809 58.2225 78.2752 59.1229 78.4317 60.0275C78.4767 60.2869 78.5368 60.5463 78.6225 60.795C78.8198 61.3716 79.0406 61.9675 79.3772 62.482C80.0204 63.4638 80.8866 64.3835 81.965 64.8894C82.8226 65.2924 83.6373 65.5925 84.5657 65.7297C86.2144 65.972 87.8781 66.1585 89.544 66.2206C91.4221 66.2914 93.2703 66.1456 95.1291 65.8519C96.9537 65.5625 98.6924 64.9451 100.348 64.1262C100.798 63.884 101.158 63.5517 101.43 63.1316C101.771 62.7586 102.001 62.3213 102.121 61.8196C102.281 61.3073 102.305 60.7928 102.189 60.2805C102.166 59.766 102.013 59.2879 101.73 58.8463H101.728Z" fill="white"/>
<path d="M170.152 38.8736C169.62 38.0504 168.829 37.3237 167.845 37.1008C167.502 37.0558 167.161 37.0086 166.818 36.9636C166.121 36.9657 165.471 37.1415 164.871 37.4909C164.753 37.5488 164.631 37.6024 164.511 37.656C163.578 38.0011 162.616 38.2477 161.634 38.4127C159.378 38.6614 157.086 38.5521 154.835 38.2841C154.67 38.2562 154.505 38.2262 154.342 38.1876C154.312 37.7075 154.31 37.2273 154.305 36.7449C154.299 35.8918 154.295 35.0386 154.288 34.1832C154.282 33.3279 154.278 32.4769 154.271 31.6215C154.269 31.2357 154.258 30.8455 154.263 30.4575C154.301 30.4489 154.338 30.4404 154.376 30.4339C155.813 30.3139 157.266 30.4339 158.705 30.3932C160.697 30.3353 162.684 30.1038 164.648 29.7694C166.59 29.4393 168.036 27.8894 168.297 25.9579C168.451 24.8239 168.61 23.6878 168.73 22.5495C168.9 20.9138 168.981 19.2589 168.794 17.6211C168.647 16.3135 168.518 14.9372 167.725 13.8268C167.144 13.0122 166.554 12.3948 165.681 11.8718C165.242 11.6081 164.74 11.428 164.264 11.2458C163.636 11.0057 162.969 10.8599 162.315 10.7185C160.499 10.3219 158.658 10.0346 156.82 9.76451C155.3 9.53943 153.776 9.32935 152.251 9.1407C151.72 9.12141 151.224 9.23074 150.764 9.47297C150.285 9.62946 149.872 9.89528 149.522 10.2704C149.145 10.6198 148.879 11.0336 148.725 11.5116C148.482 11.9725 148.373 12.4677 148.392 12.9993C148.437 13.9983 148.765 15.0316 149.522 15.7282C149.782 15.9298 150.043 16.1313 150.303 16.3306C150.905 16.68 151.555 16.8558 152.249 16.858C152.601 16.9008 152.95 16.948 153.3 16.9952C155.787 17.3317 158.285 17.694 160.727 18.2664C160.864 18.2985 161.001 18.3307 161.136 18.365C161.226 19.7541 161.151 21.1453 161.01 22.5323C159.893 22.6373 158.773 22.6931 157.65 22.6909C156.902 22.6909 156.154 22.6609 155.405 22.6695C154.355 22.6824 153.296 22.7938 152.266 22.9996C151.971 23.0597 151.679 23.1347 151.396 23.2397C150.828 23.4498 150.217 23.6706 149.704 24.0115C149.344 24.2494 148.99 24.5259 148.665 24.8089C148.54 24.9161 148.429 25.0297 148.324 25.154C147.638 25.9751 147.327 26.5174 146.956 27.5164C146.628 28.3996 146.561 29.3942 146.548 30.3332C146.538 31.0835 146.555 31.8338 146.561 32.584C146.572 34.1661 146.576 35.7503 146.593 37.3323C146.604 38.2498 146.699 39.1502 146.855 40.0548C146.9 40.3142 146.96 40.5736 147.046 40.8222C147.243 41.3989 147.464 41.9948 147.801 42.5072C148.444 43.489 149.31 44.4086 150.388 44.9145C151.246 45.3175 152.061 45.6177 152.989 45.7549C154.638 45.9971 156.301 46.1836 157.967 46.2458C159.845 46.3165 161.694 46.1707 163.552 45.877C165.377 45.5876 167.116 44.9703 168.771 44.1514C169.221 43.9091 169.581 43.5769 169.854 43.1567C170.195 42.7837 170.424 42.3464 170.544 41.8448C170.705 41.3324 170.728 40.8179 170.613 40.3056C170.589 39.7911 170.437 39.3131 170.154 38.8715L170.152 38.8736Z" fill="white"/>
<path d="M113.291 24.2901C113.439 25.9729 113.542 27.6579 113.6 29.3449C113.657 31.0685 113.668 32.792 113.632 34.5155C113.623 34.9014 113.591 35.2915 113.612 35.6752C113.662 36.5606 113.79 37.1437 114.202 37.924C114.558 38.5992 115.16 39.208 115.819 39.596C116.723 40.1298 117.84 40.3485 118.855 40.5821C122.817 41.4954 126.939 41.8984 131.002 41.6904C132.023 41.639 132.996 41.296 133.732 40.5607C134.109 40.2113 134.375 39.7976 134.529 39.3195C134.771 38.8586 134.881 38.3634 134.862 37.8318C134.817 36.8328 134.488 35.7996 133.732 35.1029C132.998 34.4298 132.027 33.9196 131.002 33.9732C128.665 34.0932 126.322 34.0075 123.998 33.7245C123.213 33.6066 122.433 33.4694 121.657 33.3065C121.558 33.285 121.459 33.2636 121.361 33.2422C121.365 32.7513 121.369 32.2625 121.365 31.7716C121.354 30.3825 121.312 28.9934 121.239 27.6043C121.239 27.5678 121.234 27.5292 121.232 27.4928C123.989 27.6043 126.747 27.7179 129.506 27.8294C130.038 27.8486 130.533 27.7393 130.992 27.4971C131.47 27.3406 131.884 27.0748 132.233 26.6996C132.61 26.3502 132.876 25.9365 133.031 25.4584C133.273 24.9975 133.382 24.5024 133.363 23.9729C133.318 22.9739 132.99 21.9406 132.233 21.2439C131.461 20.5344 130.563 20.1571 129.504 20.1142C126.5 19.992 123.494 19.8698 120.49 19.7477C120.473 19.6169 120.458 19.4861 120.441 19.3554C120.276 18.0456 120.147 16.7208 120.255 15.4024C120.31 15.1152 120.381 14.8322 120.463 14.5535C120.655 14.5664 120.846 14.5814 121.039 14.5921C121.83 14.6393 122.624 14.6736 123.415 14.6971C124.982 14.7422 126.551 14.74 128.119 14.6928C129.126 14.6628 130.128 14.2834 130.848 13.5631C131.225 13.2137 131.491 12.8 131.646 12.3219C131.888 11.861 131.997 11.3658 131.978 10.8364C131.933 9.8374 131.605 8.80414 130.848 8.10744C130.106 7.42575 129.154 6.94557 128.119 6.97772C126.393 7.02917 124.665 7.02703 122.939 6.967C122.058 6.93699 121.179 6.88983 120.3 6.82981C119.924 6.80408 119.549 6.7655 119.174 6.7462C118.687 6.72048 118.177 6.79122 117.71 6.90055C116.869 7.09348 116.267 7.52007 115.619 8.05385C115.133 8.45472 114.753 9.02923 114.391 9.52656C114.17 9.83097 113.979 10.1568 113.816 10.4955C113.383 11.4001 113.001 12.3391 112.813 13.3273C112.613 14.3692 112.487 15.4431 112.493 16.5064C112.5 17.3896 112.588 18.2707 112.695 19.1474C112.905 20.8624 113.132 22.573 113.284 24.2944L113.291 24.2901Z" fill="white"/>
<path d="M137.098 50.4881C136.838 50.2866 136.577 50.0851 136.317 49.8857C135.715 49.5363 135.065 49.3605 134.371 49.3584C129.294 49.0218 124.21 48.7496 119.127 48.5502C117.703 48.4945 116.277 48.4237 114.854 48.4623C113.848 48.4902 112.843 48.8739 112.125 49.5921C111.747 49.9415 111.481 50.3552 111.327 50.8333C111.085 51.2941 110.975 51.7893 110.995 52.321C111.04 53.3199 111.368 54.3532 112.125 55.0499C112.868 55.7316 113.818 56.2075 114.854 56.1796C117.39 56.111 119.942 56.2954 122.474 56.4111C125.006 56.5269 127.538 56.6598 130.07 56.8077C131.504 56.8913 132.936 56.9813 134.371 57.0778C134.902 57.0971 135.398 56.9878 135.856 56.7455C136.334 56.589 136.748 56.3232 137.098 55.9481C137.475 55.5987 137.741 55.1849 137.895 54.7069C138.138 54.246 138.247 53.7508 138.228 53.2192C138.183 52.2202 137.855 51.187 137.098 50.4903V50.4881Z" fill="white"/>
<path d="M185.606 4.5871C185.168 4.332 184.656 4.18409 184.154 4.12621C184.043 4.11334 183.933 4.10691 183.822 4.1112C183.646 4.11763 183.625 4.1455 183.558 3.98043C183.436 3.68032 183.335 3.37377 183.2 3.07794C182.926 2.47557 182.54 1.92464 181.961 1.58379C181.809 1.49376 181.614 1.55164 181.521 1.69955C181.086 2.39625 180.72 3.12725 180.402 3.88397C179.956 3.9397 179.517 4.03403 179.092 4.18194C178.745 4.30413 178.2 4.46062 177.995 4.79075C177.682 5.29023 178.149 5.67395 178.47 6.00407C178.738 6.28061 178.996 6.57215 179.264 6.84869C179.388 6.97731 179.44 7.01161 179.45 7.17453C179.463 7.35245 179.455 7.53038 179.452 7.70616C179.452 8.16491 179.418 8.6258 179.435 9.08455C179.446 9.3718 179.48 9.79197 179.817 9.88843C180.036 9.9506 180.289 9.81555 180.477 9.72551C180.81 9.56688 181.127 9.36966 181.423 9.151C181.586 9.02881 181.753 8.89805 181.899 8.74799C182.025 8.87876 182.158 8.9988 182.304 9.11242C182.518 9.28177 182.718 9.47256 182.941 9.62905C183.361 9.92059 184.231 10.2228 184.431 9.51329C184.499 9.27319 184.405 8.95593 184.369 8.71369C184.317 8.3707 184.268 8.02557 184.216 7.68258C184.206 7.61184 184.193 7.5411 184.184 7.46821C184.167 7.3203 184.161 7.20883 184.259 7.08878C184.377 6.9473 184.54 6.83582 184.688 6.73293C184.956 6.54428 185.237 6.37493 185.505 6.18629C185.715 6.03837 186.017 5.89046 186.159 5.6718C186.45 5.22163 185.957 4.79289 185.601 4.58495L185.606 4.5871Z" fill="#AE932E"/>
</svg>
