<svg width="19" height="16" viewBox="0 0 19 16" fill="none" xmlns="http://www.w3.org/2000/svg">
<path d="M18 4.5V13.5C18 14.3281 17.2861 15 16.4063 15H2.59375C1.71387 15 1 14.3281 1 13.5V4.5C1 3.67187 1.71387 3 2.59375 3H5.51563L5.92402 1.97187C6.15645 1.3875 6.75078 1 7.41484 1H11.5818C12.2459 1 12.8402 1.3875 13.0727 1.97187L13.4844 3H16.4063C17.2861 3 18 3.67187 18 4.5ZM12.4219 9C12.4219 10.5156 11.1104 11.75 9.5 11.75C7.88965 11.75 6.57813 10.5156 6.57813 9C6.57813 7.48437 7.88965 6.25 9.5 6.25C11.1104 6.25 12.4219 7.48437 12.4219 9Z" stroke="#878787"/>
</svg>
