<svg width="34" height="34" viewBox="0 0 34 34" fill="none" xmlns="http://www.w3.org/2000/svg">
<path fill-rule="evenodd" clip-rule="evenodd" d="M24.3833 29.2333L24.4007 29.2341C24.5389 29.2406 24.6769 29.2007 24.7935 29.118C24.8929 29.0443 24.9719 28.9418 25.0192 28.8208C25.067 28.6985 25.0798 28.564 25.0555 28.4337L25.0548 28.4297L23.6646 20.4233L29.387 14.7401C29.4701 14.6543 29.5305 14.5456 29.56 14.4248C29.5894 14.3046 29.5867 14.1784 29.5525 14.0599C29.5129 13.9395 29.4423 13.8346 29.3503 13.7556C29.2569 13.6754 29.1451 13.6249 29.0281 13.6079L29.0257 13.6076L21.0963 12.4264L17.563 5.14068L17.5617 5.13781C17.5067 5.02167 17.4219 4.92597 17.319 4.85999C17.2163 4.79411 17.0989 4.76 16.9803 4.76C16.8617 4.76 16.7443 4.79411 16.6416 4.85999C16.5387 4.92597 16.4539 5.02167 16.3989 5.13781L16.3978 5.14024L12.9065 12.4397L4.97241 13.6215C4.85532 13.6385 4.74354 13.689 4.65019 13.7692C4.5582 13.8482 4.48758 13.9531 4.44801 14.0735C4.41377 14.192 4.4111 14.3182 4.44047 14.4383C4.47 14.5592 4.5304 14.6679 4.61349 14.7537L10.3358 20.4369L8.94638 28.4392L8.2764 28.3229L9.60524 20.6697L4.13042 15.2323C3.95961 15.0579 3.83844 14.8393 3.77991 14.5998C3.72138 14.3603 3.72771 14.109 3.79821 13.8729C3.87523 13.6314 4.01691 13.4167 4.20716 13.2533C4.39742 13.0899 4.62863 12.9843 4.87457 12.9486L12.449 11.8203L15.7843 4.84683C15.8932 4.617 16.0631 4.42317 16.2746 4.28755C16.4861 4.15193 16.7307 4.08 16.9803 4.08C17.2299 4.08 17.4745 4.15193 17.686 4.28755C17.8975 4.42317 18.0674 4.617 18.1763 4.84683L21.5515 11.8067L29.1259 12.935C29.3718 12.9707 29.6031 13.0763 29.7933 13.2397C29.9836 13.4031 30.1252 13.6178 30.2023 13.8594C30.2728 14.0954 30.2791 14.3467 30.2206 14.5862C30.162 14.8257 30.0409 15.0443 29.87 15.2187L24.3952 20.6561L25.7241 28.3093C25.7715 28.5641 25.7467 28.8276 25.6525 29.0684C25.5583 29.3093 25.3987 29.5176 25.1925 29.6686C24.9519 29.8411 24.6622 29.9272 24.3686 29.9133C24.1561 29.9142 23.9465 29.8629 23.7574 29.7638L16.9803 26.1343L10.2032 29.7638C9.98315 29.8822 9.73504 29.935 9.48708 29.9163C9.23911 29.8976 9.00125 29.8081 8.80053 29.658C8.59981 29.5079 8.44429 29.3032 8.35163 29.0672C8.25898 28.8312 8.23291 28.5733 8.2764 28.3229L8.94638 28.4392C8.92414 28.5672 8.93758 28.6989 8.98461 28.8187C9.0316 28.9384 9.10962 29.0401 9.20777 29.1135C9.30578 29.1868 9.42031 29.2294 9.5382 29.2383C9.65606 29.2471 9.77473 29.2222 9.88108 29.1649L9.88218 29.1644L16.9803 25.3629L24.073 29.1615C24.0738 29.1619 24.0745 29.1623 24.0753 29.1627C24.1661 29.2098 24.2656 29.2338 24.3658 29.2333L24.3833 29.2333Z" fill="#878787"/>
</svg>
