<svg width="34" height="34" viewBox="0 0 34 34" fill="none" xmlns="http://www.w3.org/2000/svg">
<path fill-rule="evenodd" clip-rule="evenodd" d="M13.8207 8.33251C13.6879 8.46529 13.6879 8.68057 13.8207 8.81335C13.9535 8.94612 14.1688 8.94612 14.3016 8.81335L16.8299 6.285V20.6696C16.8299 20.8574 16.9821 21.0096 17.1699 21.0096C17.3577 21.0096 17.5099 20.8574 17.5099 20.6696V6.23668L20.0866 8.81335C20.2193 8.94612 20.4346 8.94612 20.5674 8.81335C20.7002 8.68057 20.7002 8.46529 20.5674 8.33251L17.4345 5.19959L17.1941 4.95918L16.9536 5.19959L13.8207 8.33251ZM11.3899 11.8004C9.69991 11.8004 8.3299 13.1704 8.3299 14.8604V26.4204C8.3299 28.1104 9.69991 29.4804 11.3899 29.4804H22.9499C24.6399 29.4804 26.0099 28.1104 26.0099 26.4204V14.8604C26.0099 13.1704 24.6399 11.8004 22.9499 11.8004H20.2299C20.0421 11.8004 19.8899 11.6482 19.8899 11.4604C19.8899 11.2727 20.0421 11.1204 20.2299 11.1204H22.9499C25.0154 11.1204 26.6899 12.7949 26.6899 14.8604V26.4204C26.6899 28.486 25.0154 30.1604 22.9499 30.1604H11.3899C9.32436 30.1604 7.6499 28.486 7.6499 26.4204V14.8604C7.6499 12.7949 9.32436 11.1204 11.3899 11.1204H14.1099C14.2977 11.1204 14.4499 11.2727 14.4499 11.4604C14.4499 11.6482 14.2977 11.8004 14.1099 11.8004H11.3899Z" fill="#878787"/>
</svg>
