<svg width="30" height="30" viewBox="0 0 30 30" fill="none" xmlns="http://www.w3.org/2000/svg">
<path d="M14.9999 2.5C12.3649 2.49987 9.83645 3.5397 7.96393 5.39349C6.09142 7.24728 5.02623 9.7652 4.99988 12.4C4.99988 19.25 13.8124 26.875 14.1874 27.2C14.4138 27.3937 14.7019 27.5001 14.9999 27.5001C15.2978 27.5001 15.586 27.3937 15.8124 27.2C16.2499 26.875 24.9999 19.25 24.9999 12.4C24.9735 9.7652 23.9083 7.24728 22.0358 5.39349C20.1633 3.5397 17.6348 2.49987 14.9999 2.5ZM14.9999 16.25C14.1346 16.25 13.2887 15.9934 12.5693 15.5127C11.8498 15.0319 11.289 14.3487 10.9579 13.5492C10.6268 12.7498 10.5401 11.8701 10.7089 11.0215C10.8778 10.1728 11.2944 9.39326 11.9063 8.78141C12.5181 8.16955 13.2977 7.75287 14.1464 7.58406C14.995 7.41525 15.8747 7.50189 16.6741 7.83303C17.4735 8.16416 18.1568 8.72492 18.6376 9.44438C19.1183 10.1638 19.3749 11.0097 19.3749 11.875C19.3749 13.0353 18.9139 14.1481 18.0935 14.9686C17.273 15.7891 16.1602 16.25 14.9999 16.25Z" fill="#B5002D"/>
<circle cx="14.9307" cy="11.7312" r="4.26591" fill="white"/>
</svg>
