<svg width="24" height="24" viewBox="0 0 24 24" fill="none" xmlns="http://www.w3.org/2000/svg">
<circle cx="12" cy="12" r="12" fill="#F1F1F1"/>
<path d="M12.7668 10.3688L10.3676 12.768C10.3114 12.8237 10.2668 12.8901 10.2363 12.9632C10.2059 13.0362 10.1902 13.1146 10.1902 13.1938C10.1902 13.273 10.2059 13.3514 10.2363 13.4245C10.2668 13.4976 10.3114 13.5639 10.3676 13.6197C10.4234 13.6759 10.4897 13.7205 10.5628 13.751C10.6359 13.7814 10.7143 13.7971 10.7935 13.7971C10.8726 13.7971 10.951 13.7814 11.0241 13.751C11.0972 13.7205 11.1636 13.6759 11.2193 13.6197L13.6185 11.2205C13.7315 11.1075 13.7949 10.9544 13.7949 10.7946C13.7949 10.6349 13.7315 10.4817 13.6185 10.3688C13.5056 10.2558 13.3524 10.1924 13.1927 10.1924C13.0329 10.1924 12.8798 10.2558 12.7668 10.3688Z" fill="#231F20"/>
<path d="M12.161 15.2331L11.3932 15.9949C10.9622 16.439 10.3828 16.7089 9.76556 16.7532C9.14828 16.7974 8.5363 16.6129 8.04636 16.2348C7.78741 16.0214 7.57609 15.7561 7.42607 15.456C7.27604 15.1558 7.19064 14.8276 7.17538 14.4924C7.16012 14.1572 7.21533 13.8225 7.33747 13.51C7.4596 13.1975 7.64592 12.914 7.88441 12.678L8.73613 11.8203C8.79235 11.7645 8.83697 11.6982 8.86742 11.6251C8.89787 11.552 8.91355 11.4736 8.91355 11.3944C8.91355 11.3152 8.89787 11.2368 8.86742 11.1638C8.83697 11.0907 8.79235 11.0243 8.73613 10.9686C8.68037 10.9123 8.61403 10.8677 8.54094 10.8373C8.46785 10.8068 8.38945 10.7911 8.31027 10.7911C8.23109 10.7911 8.15269 10.8068 8.0796 10.8373C8.00651 10.8677 7.94017 10.9123 7.88441 10.9686L7.12267 11.7363C6.48097 12.3577 6.08656 13.1908 6.01265 14.081C5.93875 14.9712 6.19037 15.858 6.7208 16.5767C7.03562 16.9851 7.43375 17.3219 7.88872 17.5646C8.3437 17.8073 8.84512 17.9505 9.35967 17.9845C9.87422 18.0185 10.3901 17.9427 10.8731 17.762C11.3561 17.5814 11.7951 17.3 12.161 16.9366L13.0127 16.0849C13.1257 15.9719 13.1891 15.8187 13.1891 15.659C13.1891 15.4993 13.1257 15.3461 13.0127 15.2331C12.8998 15.1202 12.7466 15.0568 12.5868 15.0568C12.4271 15.0568 12.2739 15.1202 12.161 15.2331Z" fill="#231F20"/>
<path d="M16.5877 6.72797C15.864 6.19203 14.97 5.93785 14.0727 6.0129C13.1753 6.08796 12.3359 6.48713 11.7113 7.13584L11.0635 7.79562C10.9895 7.84944 10.9276 7.91821 10.8818 7.99748C10.836 8.07675 10.8074 8.16475 10.7978 8.25578C10.7882 8.34681 10.7978 8.43885 10.826 8.52593C10.8542 8.61301 10.9004 8.6932 10.9616 8.7613C11.0173 8.81751 11.0837 8.86214 11.1568 8.89259C11.2299 8.92304 11.3083 8.93872 11.3874 8.93872C11.4666 8.93872 11.545 8.92304 11.6181 8.89259C11.6912 8.86214 11.7575 8.81751 11.8133 8.7613L12.593 7.97556C13.0217 7.5295 13.6004 7.2581 14.2174 7.21379C14.8344 7.16948 15.446 7.3554 15.9339 7.73564C16.1948 7.94905 16.4078 8.21503 16.559 8.51626C16.7102 8.81748 16.7963 9.14719 16.8116 9.48389C16.8268 9.8206 16.771 10.1567 16.6477 10.4704C16.5244 10.7841 16.3364 11.0683 16.0959 11.3045L15.2442 12.1622C15.1879 12.2179 15.1433 12.2843 15.1129 12.3574C15.0824 12.4304 15.0667 12.5088 15.0667 12.588C15.0667 12.6672 15.0824 12.7456 15.1129 12.8187C15.1433 12.8918 15.1879 12.9581 15.2442 13.0139C15.2999 13.0701 15.3663 13.1147 15.4393 13.1452C15.5124 13.1756 15.5908 13.1913 15.67 13.1913C15.7492 13.1913 15.8276 13.1756 15.9007 13.1452C15.9738 13.1147 16.0401 13.0701 16.0959 13.0139L16.9476 12.1622C17.31 11.7964 17.5905 11.3577 17.7705 10.8753C17.9506 10.3929 18.0261 9.87777 17.9921 9.36398C17.9581 8.85019 17.8153 8.3495 17.5732 7.89506C17.3311 7.44062 16.9952 7.04281 16.5877 6.72797Z" fill="#231F20"/>
</svg>
